<svg width="204" height="204" viewBox="0 0 204 204" fill="none" xmlns="http://www.w3.org/2000/svg">
<path d="M102 11.22C59.7529 11.22 25.5 45.4697 25.5 87.72C25.5 129.969 59.7529 164.22 102 164.22C144.247 164.22 178.5 129.969 178.5 87.72C178.5 45.4697 144.247 11.22 102 11.22ZM106.059 30.431C107.259 30.4151 108.048 30.4804 108.799 30.6223C110.654 30.9793 110.778 31.2136 110.005 32.8711C109.24 34.5206 109.277 34.1461 109.253 40.0987C109.228 45.0919 109.129 46.9901 108.855 47.2578C108.829 47.2897 108.281 47.4459 107.64 47.6133C105.517 48.1743 105.573 48.1073 105.318 50.5697C105.207 51.6343 105.125 52.514 105.138 52.5188C105.144 52.5252 107.317 52.9922 109.969 53.5468L114.782 54.5604L117.396 56.0362L120.005 57.5057L121.922 60.6565C122.974 62.3937 123.85 63.8058 123.871 63.8058C123.887 63.8058 125.383 63.24 127.189 62.5483C129 61.8518 130.495 61.3052 130.514 61.3211C130.562 61.3737 132.131 72.1363 132.101 72.1666C131.87 72.3594 121.292 75.4784 121.037 75.429C120.857 75.3971 118.965 74.8313 116.823 74.1715C114.681 73.5181 112.914 72.9953 112.895 73.0128C112.876 73.0336 112.769 75.2361 112.659 77.9136C112.547 80.5832 112.447 82.7809 112.428 82.7873C112.415 82.8001 111.543 83.522 110.492 84.3938L108.574 85.9876L107.074 85.9382C106.246 85.9063 102.355 85.8378 98.4204 85.7756L91.2741 85.664L88.9568 84.2328C87.6881 83.4471 86.3239 82.6136 85.9382 82.3777C85.0776 81.8518 85.0664 82.1227 86.0131 80.0493C86.4482 79.1026 86.8036 78.2611 86.8036 78.1877C86.8036 78.1001 89.9034 76.9669 95.2584 75.1054C100.17 73.4001 103.6 72.1554 103.438 72.1411C102.741 72.0821 86.7542 71.6868 85.8999 71.706C84.2902 71.7506 80.6533 69.9369 78.8396 68.1886C78.6436 67.9893 78.3248 58.1527 78.5113 57.979C81.0199 55.6872 82.5754 54.5732 85.2975 53.0973L88.0419 51.6104L91.8398 51.7602C95.1453 51.8973 95.668 51.8973 95.9358 51.7602C97.2952 51.1778 98.6606 50.6093 100.032 50.0549L103.83 48.4978L100.233 48.2603C98.9791 48.1788 97.7253 48.1023 96.4713 48.0308C96.2354 48.0372 93.9436 44.8497 93.8448 44.37C93.8002 44.158 93.5149 42.33 93.2089 40.2979L92.6558 36.6068L94.2735 33.8544C95.5326 31.7188 95.9358 31.1036 96.1047 31.1036C96.2226 31.0972 98.3519 30.9331 100.841 30.737C103.245 30.5458 104.858 30.447 106.059 30.431ZM136.129 53.5085L137.934 53.5643C138.93 53.5962 140.218 53.6647 140.798 53.7205C141.919 53.8257 142.653 54.0249 143.02 54.3182C143.243 54.4982 143.363 55.6792 143.611 60.215L143.637 60.6677L138.8 62.7108C136.141 63.8376 133.881 64.7827 133.787 64.8082C133.582 64.8768 130.987 61.2159 131.135 61.0788C131.185 61.031 131.939 60.7266 132.804 60.3935C133.349 60.1851 133.893 59.9737 134.436 59.7592C134.468 59.7401 134.436 58.8572 134.367 57.7989C134.304 56.7343 134.273 55.8179 134.31 55.7621C134.348 55.7063 134.772 55.1724 135.25 54.5795L136.129 53.5085ZM136.384 56.9702C136.341 56.9702 136.328 57.2013 136.36 57.4738C136.396 57.7479 136.479 58.6324 136.551 59.4421C136.623 60.2517 136.69 60.9338 136.707 60.9561C136.752 61.0087 140.742 59.8772 140.742 59.8086C140.736 59.7401 136.49 56.9718 136.384 56.9718V56.9702ZM110.348 62.6853C110.158 62.7858 109.615 63.8328 108.525 65.9222L106.016 70.729L105.387 71.9179L107.435 70.3306L109.483 68.7368L109.546 68.0196C109.575 67.6355 109.801 66.3271 110.037 65.119C110.374 63.4296 110.539 62.5849 110.348 62.6853ZM83.0631 88.8914C83.3818 88.9105 84.0384 89.1225 85.4856 89.5544C86.8195 89.9528 89.0189 90.5505 90.3768 90.8867C91.7394 91.2167 92.9077 91.5163 92.9746 91.5529C93.0638 91.5976 92.7833 92.0024 92.1984 92.6861L91.2916 93.7571L90.2078 96.4537L89.1241 99.1551L92.4088 99.0802C94.2129 99.0372 95.6967 99.0005 95.7031 98.9926C95.7095 98.9846 95.8178 97.9582 95.9422 96.7215C96.1493 94.6655 96.1924 94.436 96.4059 94.2496C96.535 94.13 97.3988 93.4846 98.3344 92.7993L100.036 91.5593L101.817 92.8232L103.587 94.0822L103.774 96.4776C103.881 97.7972 103.975 98.8746 103.983 98.8746C103.987 98.8746 105.285 98.8635 106.851 98.8428L109.701 98.8061L107.993 95.2632C107.052 93.3156 106.295 91.7091 106.308 91.69C106.327 91.6741 107.451 91.5466 108.802 91.4095C111.092 91.18 111.363 91.1306 113.006 90.6254C113.972 90.3337 114.826 90.0962 114.909 90.0962C114.984 90.0962 117.013 92.3323 119.41 95.0592C124.695 101.092 124.736 101.128 128.335 104.502C134.846 110.586 135.733 111.725 136.686 115.236C137.302 117.507 137.563 118.156 139.799 122.899C140.962 125.364 142.017 127.811 142.422 128.95C142.808 130.04 142.928 129.841 141.351 130.762C140.786 131.092 140.328 131.422 140.328 131.491C140.322 131.896 141.691 132.468 146.23 133.943C152.095 135.848 153.072 136.564 151.703 137.947C150.718 138.935 150.034 139.042 144.375 139.042C138.578 139.036 137.01 138.867 136.363 138.183C135.901 137.697 135.749 138.016 138.121 134.453C139.284 132.716 140.221 131.279 140.204 131.266C140.185 131.25 138.251 131.416 135.904 131.641L131.649 132.045L128.394 131.765C126.601 131.615 125.084 131.452 125.022 131.409C124.966 131.362 122.961 127.307 120.564 122.402L116.207 113.48L109.626 109.296L103.045 105.119L100.312 105.183C99.1279 105.201 97.9441 105.242 96.7613 105.305L95.9358 105.369L90.4326 111.425L84.9389 117.482L78.0874 124.057L71.2454 130.632L69.1847 130.887L67.124 131.148L62.8591 130.544C60.5195 130.209 58.5862 129.946 58.5735 129.965C58.5544 129.985 59.5553 131.366 60.7952 133.041C62.0351 134.716 63.0344 136.135 63.0153 136.197C63.0025 136.261 62.6296 136.87 62.1993 137.542L61.4088 138.774L57.2603 138.768C50.9474 138.757 50.8215 138.704 51.7443 136.471C52.1794 135.407 52.318 135.25 53.9978 133.963C56.9112 131.739 57.9472 130.844 58.2085 130.351C58.2898 130.201 58.0842 129.985 57.0196 129.094C56.3104 128.502 55.7414 127.941 55.7478 127.855C55.7717 127.326 70.1951 107.634 72.6718 104.746C74.4481 102.644 76.1788 100.503 77.8627 98.3264L80.5465 94.8345L81.5139 92.3881C81.9064 91.3935 82.2836 90.3931 82.6455 89.387C82.7539 89.0476 82.7411 88.8738 83.0615 88.893L83.0631 88.8914ZM30.6 176.608V194.549H34.5461V188.772L36.8061 186.481L42.2153 194.549H47.1654L39.4708 183.692L46.4865 176.608H41.5618L34.5461 184.046V176.607L30.6 176.608ZM48.2364 185.554C48.2843 184.712 48.4978 184.022 48.8644 183.468C49.2331 182.915 49.7022 182.471 50.2717 182.135C50.8454 181.801 51.4797 181.562 52.1842 181.432C52.9035 181.284 53.6233 181.209 54.3437 181.209C54.9971 181.209 55.6633 181.257 56.3295 181.358C57.0021 181.437 57.6109 181.619 58.1655 181.887C58.7201 182.154 59.168 182.527 59.5234 183.013C59.8708 183.487 60.0525 184.115 60.0525 184.9V191.661C60.0525 192.248 60.0854 192.81 60.1513 193.347C60.2198 193.883 60.3314 194.281 60.5003 194.549H56.8825C56.8169 194.352 56.7589 194.153 56.7088 193.951C56.6726 193.735 56.6476 193.517 56.6339 193.298C56.0602 193.883 55.3897 194.292 54.6226 194.525C53.8502 194.761 53.0618 194.879 52.2575 194.879C51.6402 194.879 51.0632 194.805 50.5267 194.656C50.0146 194.514 49.5347 194.275 49.113 193.951C48.7105 193.625 48.3856 193.212 48.1615 192.745C47.9448 192.259 47.8369 191.68 47.838 191.008C47.838 190.271 47.9623 189.669 48.2109 189.202C48.4787 188.71 48.815 188.33 49.2198 188.043C49.6363 187.756 50.1054 187.547 50.6271 187.415C51.1548 187.266 51.6906 187.148 52.232 187.06C52.7685 186.978 53.2961 186.912 53.8146 186.861C54.28 186.82 54.7418 186.746 55.1963 186.638C55.6001 186.537 55.9194 186.393 56.1542 186.207C56.3901 186.007 56.4979 185.722 56.4777 185.355C56.4798 184.968 56.414 184.665 56.2801 184.446C56.1712 184.223 55.9944 184.039 55.7749 183.922C55.5566 183.779 55.3065 183.691 55.0465 183.667C54.7573 183.615 54.4638 183.59 54.17 183.592C53.4655 183.592 52.9109 183.743 52.5061 184.046C52.1066 184.346 51.8723 184.848 51.8033 185.554H48.2364ZM56.4793 188.193C56.3127 188.34 56.1173 188.45 55.9056 188.517C55.4026 188.662 54.8881 188.764 54.3676 188.821C54.082 188.853 53.7977 188.895 53.5149 188.947C53.2439 188.999 52.9758 189.066 52.7117 189.146C52.4588 189.233 52.2325 189.351 52.0327 189.5C51.8422 189.639 51.6867 189.82 51.5785 190.029C51.4617 190.247 51.4032 190.523 51.4032 190.858C51.4032 191.177 51.4617 191.444 51.5785 191.661C51.694 191.873 51.8584 192.055 52.0583 192.19C52.258 192.307 52.4923 192.39 52.7611 192.439C53.0278 192.489 53.304 192.514 53.5898 192.514C54.2927 192.514 54.8409 192.402 55.2266 192.165C55.6081 191.93 55.8923 191.654 56.0793 191.336C56.262 191.001 56.3704 190.666 56.4044 190.329C56.4463 190.063 56.4713 189.795 56.4793 189.526V188.193ZM62.8224 181.557V194.549H66.3892V188.697C66.3882 188.111 66.4466 187.566 66.5646 187.06C66.6825 186.562 66.8753 186.126 67.1431 185.753C67.4289 185.368 67.7981 185.067 68.2508 184.849C68.7002 184.634 69.2527 184.526 69.9082 184.526C70.1271 184.524 70.3529 184.54 70.5856 184.575C70.8204 184.588 71.0218 184.613 71.1896 184.65V181.332C70.9378 181.253 70.6758 181.211 70.4119 181.208C69.9571 181.207 69.5215 181.273 69.105 181.407C68.6837 181.541 68.2847 181.736 67.9208 181.987C67.5543 182.217 67.2308 182.516 66.9439 182.864C66.6606 183.195 66.4314 183.57 66.2649 183.973H66.2155V181.557H62.8224ZM72.4407 185.554C72.4901 184.712 72.6957 184.022 73.0702 183.468C73.4357 182.915 73.9043 182.471 74.4759 182.135C75.0664 181.789 75.7141 181.551 76.3884 181.432C77.1056 181.284 77.8255 181.209 78.548 181.209C79.2003 181.209 79.8623 181.259 80.5338 181.358C81.2 181.437 81.8167 181.619 82.3714 181.887C82.9196 182.152 83.3717 182.528 83.7277 183.013C84.0762 183.486 84.2504 184.115 84.2504 184.9V191.661C84.2515 192.248 84.2871 192.81 84.3572 193.347C84.4209 193.882 84.5368 194.282 84.7046 194.549H81.0868C81.0195 194.352 80.96 194.153 80.9083 193.951C80.8769 193.734 80.852 193.516 80.8334 193.298C80.2802 193.874 79.5873 194.297 78.8221 194.525C78.058 194.761 77.2629 194.88 76.4633 194.879C75.8407 194.879 75.2617 194.805 74.7262 194.656C74.2164 194.513 73.7387 194.274 73.3189 193.951C72.9119 193.629 72.5856 193.216 72.3658 192.745C72.1469 192.259 72.037 191.68 72.0359 191.008C72.0348 190.271 72.1618 189.669 72.4168 189.202C72.683 188.71 73.0193 188.33 73.4177 188.043C73.8406 187.756 74.3097 187.547 74.825 187.415C75.3553 187.266 75.8938 187.147 76.4378 187.06C76.9744 186.978 77.5014 186.912 78.0188 186.861C78.4843 186.82 78.9461 186.746 79.4006 186.638C79.7469 186.562 80.0736 186.416 80.3601 186.207C80.5896 186.008 80.7027 185.721 80.6836 185.355C80.6825 184.968 80.6161 184.665 80.4844 184.446C80.3759 184.223 80.1996 184.039 79.9807 183.922C79.7625 183.779 79.5124 183.691 79.2524 183.667C78.9626 183.615 78.6686 183.59 78.3742 183.592C77.6698 183.592 77.1157 183.743 76.712 184.046C76.3125 184.346 76.0777 184.848 76.0075 185.554H72.4407ZM80.6836 188.193C80.5156 188.34 80.3185 188.451 80.1051 188.517C79.6047 188.662 79.0928 188.764 78.5751 188.821C78.2871 188.853 78.0024 188.895 77.7208 188.947C77.4476 188.999 77.1774 189.066 76.9112 189.146C76.6684 189.229 76.4395 189.349 76.2323 189.5C76.046 189.641 75.8931 189.822 75.7844 190.029C75.6569 190.286 75.5945 190.571 75.6027 190.858C75.6038 191.177 75.6643 191.444 75.7844 191.661C75.8975 191.873 76.0598 192.054 76.2577 192.19C76.4633 192.308 76.6928 192.389 76.9606 192.439C77.2326 192.489 77.5104 192.514 77.7941 192.514C78.4986 192.514 79.0404 192.402 79.4261 192.165C79.8129 191.93 80.0971 191.654 80.2788 191.336C80.4668 191.001 80.5768 190.666 80.6087 190.329C80.6586 189.992 80.6836 189.724 80.6836 189.526V188.193ZM91.5466 181.557V177.66H87.9798V181.557H85.8202V183.947H87.9798V191.612C87.9798 192.266 88.0876 192.793 88.3033 193.193C88.5201 193.596 88.8149 193.908 89.1878 194.127C89.5672 194.345 90.0028 194.485 90.4947 194.549C90.9941 194.636 91.5211 194.68 92.0757 194.68C92.4263 194.679 92.7876 194.671 93.1595 194.656C93.5282 194.639 93.8623 194.603 94.1619 194.549V191.785C93.988 191.825 93.811 191.85 93.6328 191.86C93.4522 191.881 93.2593 191.891 93.0543 191.892C92.4487 191.892 92.0502 191.785 91.8526 191.586C91.6465 191.385 91.5445 190.983 91.5466 190.378V183.947H94.1619V181.557H91.5466ZM104.609 186.662H98.7998C98.8189 186.407 98.8683 186.126 98.9496 185.803C99.0537 185.485 99.2131 185.184 99.4277 184.9C99.6646 184.616 99.9658 184.381 100.331 184.196C100.717 183.997 101.196 183.898 101.769 183.898C102.641 183.898 103.283 184.128 103.699 184.601C104.137 185.067 104.441 185.754 104.609 186.662ZM98.7998 188.922H108.176C108.245 187.952 108.161 186.977 107.927 186.034C107.706 185.144 107.312 184.306 106.768 183.568C106.249 182.843 105.558 182.257 104.757 181.863C103.936 181.427 102.973 181.209 101.869 181.209C100.88 181.209 99.9754 181.383 99.1552 181.73C98.3662 182.069 97.6558 182.567 97.0689 183.194C96.4685 183.809 96.0061 184.546 95.7127 185.355C95.3862 186.222 95.2236 187.142 95.2329 188.069C95.2329 189.072 95.3843 189.993 95.6872 190.832C95.9819 191.635 96.435 192.37 97.0195 192.994C97.5869 193.596 98.2823 194.065 99.1057 194.401C99.9271 194.72 100.848 194.879 101.869 194.879C103.345 194.879 104.595 194.544 105.635 193.872C106.677 193.206 107.449 192.091 107.951 190.528H104.808C104.689 190.933 104.371 191.319 103.855 191.685C103.335 192.039 102.714 192.215 101.994 192.214C100.985 192.214 100.22 191.953 99.6779 191.436C99.1424 190.914 98.8476 190.08 98.7998 188.922ZM117.644 176.608V194.549H130.332V191.237H121.587V176.607L117.644 176.608ZM132.039 185.554C132.087 184.712 132.3 184.022 132.667 183.468C133.033 182.915 133.503 182.471 134.074 182.135C134.648 181.801 135.282 181.562 135.987 181.432C136.706 181.284 137.426 181.209 138.146 181.209C138.799 181.209 139.461 181.259 140.132 181.358C140.805 181.437 141.413 181.619 141.968 181.887C142.523 182.154 142.971 182.527 143.326 183.013C143.673 183.487 143.855 184.115 143.855 184.9V191.661C143.855 192.248 143.888 192.81 143.954 193.347C144.018 193.882 144.134 194.282 144.303 194.549H140.685C140.619 194.352 140.561 194.153 140.511 193.951C140.476 193.735 140.449 193.517 140.432 193.298C139.879 193.874 139.186 194.297 138.42 194.525C137.656 194.761 136.861 194.88 136.062 194.879C135.437 194.879 134.866 194.804 134.324 194.656C133.814 194.513 133.336 194.274 132.916 193.951C132.513 193.625 132.188 193.212 131.964 192.745C131.745 192.259 131.635 191.68 131.634 191.008C131.636 190.271 131.763 189.669 132.014 189.202C132.281 188.71 132.618 188.33 133.016 188.043C133.447 187.753 133.925 187.541 134.43 187.415C134.957 187.266 135.493 187.148 136.035 187.06C136.571 186.978 137.099 186.912 137.617 186.861C138.083 186.82 138.544 186.746 138.999 186.638C139.403 186.538 139.722 186.394 139.957 186.207C140.189 186.007 140.298 185.722 140.282 185.355C140.281 184.967 140.214 184.664 140.083 184.446C139.974 184.223 139.797 184.039 139.577 183.922C139.359 183.779 139.109 183.691 138.849 183.667C138.56 183.615 138.266 183.59 137.973 183.592C137.268 183.592 136.713 183.743 136.309 184.046C135.909 184.347 135.675 184.849 135.606 185.554H132.039ZM140.282 188.193C140.113 188.341 139.916 188.451 139.702 188.517C139.201 188.662 138.69 188.764 138.172 188.821C137.886 188.853 137.601 188.895 137.318 188.947C137.046 188.999 136.778 189.066 136.514 189.146C136.26 189.233 136.034 189.351 135.835 189.5C135.645 189.639 135.489 189.82 135.381 190.029C135.264 190.246 135.206 190.522 135.206 190.858C135.206 191.177 135.264 191.444 135.381 191.661C135.494 191.875 135.659 192.057 135.861 192.19C136.062 192.307 136.296 192.39 136.565 192.439C136.831 192.489 137.107 192.514 137.392 192.514C138.095 192.514 138.637 192.402 139.023 192.165C139.41 191.93 139.696 191.654 139.883 191.336C140.065 191.001 140.173 190.666 140.207 190.329C140.249 190.063 140.274 189.795 140.282 189.526V188.193ZM156.151 188.069C156.151 188.604 156.087 189.121 155.976 189.624C155.87 190.097 155.683 190.548 155.423 190.957C155.167 191.343 154.848 191.655 154.463 191.891C154.095 192.107 153.643 192.215 153.105 192.214C152.588 192.215 152.136 192.107 151.749 191.891C151.364 191.656 151.038 191.336 150.796 190.957C150.535 190.548 150.348 190.097 150.243 189.624C150.125 189.114 150.066 188.592 150.068 188.069C150.066 187.514 150.125 186.985 150.243 186.481C150.361 185.983 150.541 185.535 150.796 185.149C151.044 184.77 151.363 184.464 151.749 184.245C152.16 184.005 152.63 183.885 153.105 183.898C153.642 183.896 154.094 184.012 154.463 184.245C154.849 184.464 155.166 184.77 155.423 185.149C155.672 185.537 155.857 185.981 155.976 186.481C156.087 186.985 156.151 187.514 156.151 188.069ZM146.625 176.607V194.549H150.018V192.893H150.068C150.452 193.616 151.021 194.126 151.773 194.425C152.528 194.729 153.384 194.88 154.339 194.879C155.027 194.876 155.707 194.73 156.335 194.449C156.963 194.168 157.526 193.759 157.987 193.249C158.503 192.694 158.92 191.988 159.238 191.132C159.561 190.26 159.716 189.232 159.716 188.043C159.716 186.854 159.561 185.828 159.238 184.975C158.92 184.104 158.503 183.392 157.987 182.84C157.513 182.308 156.929 181.887 156.275 181.606C155.663 181.344 155.004 181.209 154.339 181.208C153.536 181.205 152.742 181.366 152.004 181.681C151.281 181.973 150.665 182.482 150.243 183.138H150.192V176.608L146.625 176.607ZM164.754 190.329H161.361C161.393 191.2 161.586 191.928 161.939 192.514C162.307 193.085 162.768 193.548 163.323 193.902C163.919 194.263 164.574 194.518 165.258 194.656C166.7 194.953 168.187 194.953 169.629 194.656C170.307 194.537 170.955 194.289 171.54 193.927C172.089 193.578 172.546 193.102 172.872 192.539C173.226 191.953 173.402 191.237 173.402 190.378C173.402 189.774 173.284 189.277 173.046 188.872C172.821 188.46 172.504 188.106 172.119 187.838C171.713 187.544 171.263 187.315 170.786 187.16C170.291 186.995 169.789 186.853 169.28 186.736C168.786 186.619 168.289 186.509 167.792 186.407C167.351 186.319 166.915 186.211 166.485 186.083C166.157 185.968 165.852 185.797 165.583 185.578C165.468 185.484 165.377 185.365 165.316 185.23C165.255 185.095 165.226 184.948 165.232 184.8C165.23 184.531 165.297 184.322 165.433 184.172C165.559 184.008 165.723 183.878 165.911 183.791C166.12 183.709 166.34 183.659 166.564 183.643C166.796 183.61 167.014 183.593 167.218 183.592C167.855 183.591 168.408 183.718 168.875 183.973C169.343 184.202 169.602 184.663 169.653 185.355H173.048C172.983 184.549 172.773 183.887 172.418 183.369C172.1 182.845 171.66 182.404 171.135 182.086C170.619 181.767 170.02 181.538 169.355 181.407C168.685 181.27 168.002 181.203 167.318 181.208C166.615 181.208 165.924 181.271 165.258 181.407C164.586 181.525 163.983 181.743 163.447 182.06C162.912 182.36 162.475 182.784 162.14 183.319C161.821 183.853 161.661 184.539 161.66 185.379C161.66 185.945 161.778 186.43 162.014 186.835C162.252 187.223 162.556 187.546 162.942 187.814C163.329 188.067 163.764 188.276 164.249 188.442C164.753 188.596 165.264 188.731 165.782 188.847C167.057 189.114 168.047 189.382 168.751 189.65C169.471 189.919 169.831 190.321 169.828 190.858C169.838 191.142 169.759 191.423 169.604 191.661C169.454 191.86 169.261 192.028 169.025 192.165C168.788 192.291 168.534 192.383 168.271 192.439C167.671 192.551 167.053 192.534 166.459 192.389C166.156 192.315 165.867 192.188 165.607 192.015C165.358 191.829 165.145 191.6 164.979 191.338C164.823 191.025 164.746 190.678 164.754 190.329Z" fill="white"/>
</svg>
