<svg width="180" height="41" viewBox="0 0 180 41" fill="none" xmlns="http://www.w3.org/2000/svg">
<path d="M0 13.0361C4.77429 13.0361 9.55132 13.0361 14.3311 13.0361C14.6937 13.0361 14.8791 13.1241 14.9821 13.501C15.1882 14.238 15.4436 14.9624 15.695 15.6827C15.7529 15.7864 15.7699 15.9086 15.7423 16.0245C15.7148 16.1404 15.6448 16.2413 15.5467 16.3067C13.0744 18.3 10.6474 20.31 8.18744 22.3033C8.00789 22.4271 7.79447 22.4901 7.5776 22.4834C5.05173 22.4834 2.52587 22.4834 0 22.4834L0 13.0361Z" fill="white"/>
<path d="M36.0256 19.2629L52.4705 32.6633L46.537 40.0167L43.838 37.814C40.3164 34.919 36.792 32.0295 33.2648 29.1457C33.1253 29.0654 33.022 28.9331 32.9766 28.7769C32.9313 28.6206 32.9474 28.4526 33.0217 28.3082C33.9818 25.4564 34.9089 22.5879 35.8484 19.7236C35.8896 19.5938 35.9431 19.4681 36.0256 19.2629Z" fill="white"/>
<path d="M6.22196 39.9916L0.412048 32.6633C5.87583 28.1909 11.3314 23.7521 16.8281 19.2629C16.9064 19.443 16.9765 19.5728 17.0218 19.711C17.9668 22.5921 18.9117 25.4718 19.8567 28.35C19.9213 28.4691 19.9393 28.6085 19.9072 28.7404C19.8752 28.8723 19.7953 28.9872 19.6836 29.0619C15.2747 32.6465 10.8699 36.2297 6.46919 39.8115C6.40326 39.866 6.32909 39.912 6.22196 39.9916Z" fill="white"/>
<path d="M18.1302 13.061H34.7688L30.6483 25.6238H27.3272C25.7614 25.6238 24.1956 25.6238 22.6339 25.6238C22.3702 25.6238 22.2219 25.5987 22.1024 25.2888C20.8085 21.3162 19.5065 17.3422 18.1961 13.3667C18.169 13.266 18.147 13.164 18.1302 13.061Z" fill="white"/>
<path d="M52.8496 13.0611V22.4581C52.6724 22.4581 52.5076 22.4581 52.3427 22.4581C50.0064 22.4581 47.666 22.4581 45.3379 22.4581C45.057 22.4464 44.7865 22.3469 44.5632 22.1734C42.1939 20.2596 39.8452 18.3208 37.4801 16.4029C37.4068 16.364 37.3418 16.3109 37.2889 16.2464C37.2359 16.182 37.1961 16.1075 37.1716 16.0273C37.147 15.9471 37.1384 15.8628 37.1461 15.7792C37.1538 15.6956 37.1777 15.6144 37.2164 15.5402C37.5295 14.7278 37.7726 13.8903 38.0405 13.0486L52.8496 13.0611Z" fill="white"/>
<path d="M95.3896 37.5126C95.3928 37.8746 95.3134 38.2324 95.1575 38.558C95.0016 38.8835 94.7736 39.1678 94.4913 39.3887C94.045 39.7759 93.4794 39.9922 92.8926 40C92.5431 40.0051 92.1975 39.9248 91.8849 39.766C91.5723 39.6071 91.3018 39.3743 91.096 39.0871L81.6189 27.1567L79.1136 29.3887V37.1567C79.1136 37.4833 79.0503 37.8068 78.9273 38.1086C78.8043 38.4104 78.624 38.6846 78.3967 38.9155C78.1695 39.1465 77.8997 39.3297 77.6027 39.4548C77.3057 39.5798 76.9875 39.6441 76.666 39.6441C76.3446 39.6441 76.0264 39.5798 75.7294 39.4548C75.4325 39.3297 75.1626 39.1465 74.9354 38.9155C74.7081 38.6846 74.5278 38.4104 74.4048 38.1086C74.2818 37.8068 74.2185 37.4833 74.2185 37.1567V2.48748C74.204 2.15669 74.256 1.82636 74.3715 1.51674C74.487 1.20712 74.6635 0.924709 74.8901 0.686812C75.3785 0.244445 76.0098 0 76.664 0C77.3182 0 77.9495 0.244445 78.4379 0.686812C78.6652 0.92436 78.8425 1.20661 78.9587 1.51625C79.0749 1.82589 79.1276 2.15639 79.1136 2.48748V23.1491L91.2444 12.1441C91.4449 11.933 91.6858 11.7657 91.9522 11.6527C92.2186 11.5396 92.505 11.4831 92.7937 11.4866C93.1194 11.4753 93.4431 11.5426 93.7382 11.6831C94.0333 11.8236 94.2914 12.0333 94.4913 12.2949C94.6994 12.4986 94.8645 12.7433 94.9764 13.014C95.0884 13.2847 95.1448 13.5758 95.1424 13.8694C95.1511 14.197 95.0849 14.5221 94.9491 14.8193C94.8132 15.1165 94.6114 15.3776 94.3595 15.5821L85.1502 23.9071L94.8416 35.9883C95.2118 36.405 95.4083 36.9515 95.3896 37.5126Z" fill="white"/>
<path d="M119.495 13.526C121.558 14.7424 123.265 16.4958 124.439 18.6056C125.665 20.7919 126.295 23.271 126.265 25.7873V37.0939C126.278 37.4427 126.223 37.7909 126.101 38.1173C125.979 38.4438 125.793 38.7419 125.555 38.9937C125.317 39.2455 125.032 39.4459 124.716 39.5827C124.4 39.7196 124.06 39.7901 123.716 39.7901C123.372 39.7901 123.032 39.7196 122.716 39.5827C122.4 39.4459 122.115 39.2455 121.877 38.9937C121.639 38.7419 121.453 38.4438 121.331 38.1173C121.209 37.7909 121.154 37.4427 121.167 37.0939V35.2262C119.249 37.5798 116.564 39.1561 113.599 39.6686C110.634 40.1812 107.587 39.596 105.011 38.0193C103.055 36.7935 101.466 35.047 100.417 32.9691C99.2845 30.7521 98.7098 28.2848 98.7437 25.7873C98.7113 23.2746 99.3309 20.7975 100.54 18.6056C101.709 16.4843 103.426 14.7278 105.505 13.526C107.638 12.2898 110.055 11.6511 112.51 11.6751C114.96 11.6414 117.373 12.2809 119.495 13.526ZM117.047 34.0453C118.389 33.2245 119.486 32.0475 120.22 30.6408C120.999 29.1502 121.395 27.4834 121.369 25.7957C121.392 24.0989 120.997 22.4233 120.22 20.9213C119.654 19.8659 118.886 18.9371 117.959 18.1902C117.033 17.4432 115.968 16.8935 114.829 16.5739C113.689 16.2542 112.497 16.1711 111.325 16.3295C110.153 16.4879 109.025 16.8846 108.007 17.4959C106.658 18.326 105.554 19.5091 104.809 20.9213C104.016 22.4183 103.612 24.0959 103.635 25.7957C103.61 27.4865 104.014 29.1552 104.809 30.6408C105.558 32.0444 106.662 33.2196 108.007 34.0453C109.378 34.86 110.938 35.2893 112.527 35.2893C114.115 35.2893 115.675 34.86 117.047 34.0453Z" fill="white"/>
<path d="M147.011 35.2806C147.44 35.7865 147.664 36.4391 147.638 37.1064C147.646 37.4544 147.576 37.7998 147.433 38.1162C147.291 38.4326 147.079 38.7117 146.813 38.9322C146.214 39.4255 145.458 39.6788 144.687 39.6441H143.806C142.224 39.6577 140.672 39.2085 139.335 38.3501C137.985 37.4862 136.891 36.268 136.166 34.8242C135.385 33.2696 134.99 31.5443 135.016 29.799V17.2572H132.717C132.095 17.2855 131.487 17.0679 131.02 16.65C130.81 16.4584 130.643 16.223 130.532 15.9598C130.42 15.6967 130.366 15.4121 130.373 15.1257C130.359 14.8234 130.409 14.5217 130.521 14.2412C130.632 13.9607 130.803 13.7081 131.02 13.5009C131.487 13.0829 132.095 12.8653 132.717 12.8937H135.016V5.58212C135.016 4.90909 135.28 4.26361 135.748 3.78771C136.216 3.3118 136.851 3.04443 137.514 3.04443C138.176 3.04443 138.811 3.3118 139.279 3.78771C139.747 4.26361 140.011 4.90909 140.011 5.58212V12.8937H144.255C144.877 12.8644 145.485 13.0822 145.952 13.5009C146.17 13.7077 146.341 13.9601 146.453 14.2406C146.566 14.5212 146.617 14.8231 146.603 15.1257C146.609 15.4124 146.554 15.6971 146.442 15.9602C146.33 16.2233 146.163 16.4586 145.952 16.65C145.485 17.0687 144.877 17.2864 144.255 17.2572H140.011V29.7949C139.97 31.0262 140.36 32.2323 141.111 33.1994C141.423 33.6259 141.83 33.9719 142.298 34.2098C142.766 34.4476 143.282 34.5705 143.806 34.5687H145.503C145.79 34.5684 146.074 34.632 146.335 34.755C146.595 34.878 146.826 35.0574 147.011 35.2806Z" fill="white"/>
<path d="M173.234 13.526C175.297 14.7423 177.004 16.4957 178.179 18.6055C179.403 20.7923 180.032 23.2714 180 25.7873V37.0938C180 37.7802 179.732 38.4384 179.254 38.9238C178.777 39.4091 178.129 39.6817 177.454 39.6817C176.778 39.6817 176.13 39.4091 175.653 38.9238C175.175 38.4384 174.907 37.7802 174.907 37.0938V35.2261C172.989 37.5798 170.303 39.156 167.339 39.6686C164.374 40.1811 161.327 39.5959 158.751 38.0193C156.794 36.7926 155.204 35.0464 154.152 32.969C153.022 30.7513 152.447 28.2846 152.479 25.7873C152.448 23.2742 153.069 20.7971 154.28 18.6055C155.449 16.4827 157.167 14.726 159.249 13.526C161.382 12.2898 163.799 11.6511 166.254 11.675C168.702 11.6421 171.114 12.2816 173.234 13.526ZM170.787 34.0452C172.128 33.2231 173.224 32.0465 173.959 30.6407C174.742 29.148 175.142 27.4787 175.121 25.7873C175.143 24.0911 174.75 22.4159 173.976 20.9129C173.41 19.8575 172.642 18.9287 171.715 18.1817C170.789 17.4348 169.725 16.8851 168.585 16.5654C167.445 16.2458 166.253 16.1626 165.081 16.321C163.909 16.4795 162.781 16.8761 161.763 17.4874C160.414 18.3176 159.31 19.5006 158.565 20.9129C157.773 22.4099 157.368 24.0875 157.391 25.7873C157.366 27.478 157.77 29.1468 158.565 30.6323C159.314 32.0359 160.418 33.2112 161.763 34.0368C163.134 34.8515 164.694 35.2809 166.283 35.2809C167.871 35.2809 169.431 34.8515 170.803 34.0368L170.787 34.0452Z" fill="white"/>
</svg>
